{"title":"Shetland S02E05 Blue Lightning pt 1 720P x264 RB58.mp4","uid":9921785,"size":1022447287,"categoryP":"video","categoryS":"hd___tv_shows","magnet":"?xt=urn:btih:727657b1aded9628ee9d58715ac2fdb0e7255317&amp;dn=Shetland+S02E05+Blue+Lightning+pt+1+720P+x264+RB58.mp4&amp;tr=udp%3A%2F%2Ftracker.openbittorrent.com%3A80&amp;tr=udp%3A%2F%2Fopen.demonii.com%3A1337&amp;tr=udp%3A%2F%2Ftracker.coppersurfer.tk%3A6969&amp;tr=udp%3A%2F%2Fexodus.desync.com%3A6969","seeders":4,"leechers":0,"uploader":"RedBaron58","files":1,"time":1397003849,"description":"Shetland Series 2 Episode 5  -  Blue Lightning pt 1  720P x264 \n &lt;a href=&quot;\nhttp://www.imdb.com/title/tt2396135/&quot; rel=&quot;nofollow&quot; target=&quot;_NEW&quot;&gt;\nhttp://www.imdb.com/title/tt2396135/&lt;/a&gt;\n\nPlease be patient My upload speed is limited, but I am online most the time and during the night.\nThank you for your kind comments and thumbs ups on my other torrents, your feedback is welcome.\n\n\nThe Scotland-based crime drama cosisting of three two-part stories starring Douglas Henshall.\n\n\nAbout the Episode:\nA scientist is found dead in the bird observatory on Fair Isle, Perez's childhood home, \nso he takes Tosh and makes his way across to the island, where he is greeted by his \nfather - just before flights are grounded by incoming storms. \nWorking alone and without a forensic team, the detectives talk to the victim's friends, \nfamily and colleagues - and as tensions run high, the storm forces Perez and the suspects \nto remain together under a single roof.\n\n\nI hope you enjoy.\n\nTechnical:\n\nGeneral\nComplete name                            : G:Shetland S02E05 Blue Lightning pt 1 720P x264 RB58.mp4\nFormat                                   : MPEG-4\nFormat profile                           : Base Media\nCodec ID                                 : isom\nFile size                                : 975 MiB\nDuration                                 : 56mn 49s\nOverall bit rate mode                    : Variable\nOverall bit rate                         : 2 399 Kbps\nWriting application                      : Lavf54.63.104\n\nVideo\nID                                       : 1\nFormat                                   : AVC\nFormat/Info                              : Advanced Video Codec\nFormat profile                           : &lt;a class=&quot;__cf_email__&quot; href=&quot;/cdn-cgi/l/email-protection&quot; data-cfemail=&quot;d991b0beb19995edf7e8&quot;&gt;[email&amp;#160;protected]&lt;/a&gt;&lt;script cf-hash='f9e31' type=&quot;text/javascript&quot;&gt;\n/* &lt;![CDATA[ */!function(){try{var t=&quot;currentScript&quot;in document?document.currentScript:function(){for(var t=document.getElementsByTagName(&quot;script&quot;),e=t.length;e--;)if(t[e].getAttribute(&quot;cf-hash&quot;))return t[e]}();if(t&amp;&amp;t.previousSibling){var e,r,n,i,c=t.previousSibling,a=c.getAttribute(&quot;data-cfemail&quot;);if(a){for(e=&quot;&quot;,r=parseInt(a.substr(0,2),16),n=2;a.length-n;n+=2)i=parseInt(a.substr(n,2),16)^r,e+=String.fromCharCode(i);e=document.createTextNode(e),c.parentNode.replaceChild(e,c)}}}catch(u){}}();/* ]]&gt; */&lt;/script&gt;\nFormat settings, CABAC                   : Yes\nFormat settings, ReFrames                : 2 frames\nCodec ID                                 : avc1\nCodec ID/Info                            : Advanced Video Coding\nDuration                                 : 56mn 49s\nBit rate mode                            : Variable\nBit rate                                 : 2 300 Kbps\nMaximum bit rate                         : 3 500 Kbps\nWidth                                    : 1 280 pixels\nHeight                                   : 720 pixels\nDisplay aspect ratio                     : 16:9\nFrame rate mode                          : Constant\nFrame rate                               : 25.000 fps\nColor space                              : YUV\nChroma subsampling                       : 4:2:0\nBit depth                                : 8 bits\nScan type                                : Progressive\nBits/(Pixel*Frame)                       : 0.100\nStream size                              : 935 MiB (96%)\n\nAudio\nID                                       : 2\nFormat                                   : AAC\nFormat/Info                              : Advanced Audio Codec\nFormat profile                           : LC\nCodec ID                                 : 40\nDuration                                 : 56mn 49s\nBit rate mode                            : Constant\nBit rate                                 : 93.5 Kbps\nChannel(s)                               : 2 channels\nChannel positions                        : Front: L R\nSampling rate                            : 48.0 KHz\nCompression mode                         : Lossy\nStream size                              : 38.0 MiB (4%)","torrent":{"xt":"urn:btih:727657b1aded9628ee9d58715ac2fdb0e7255317","amp;dn":"Shetland+S02E05+Blue+Lightning+pt+1+720P+x264+RB58.mp4","amp;tr":["udp%3A%2F%2Ftracker.openbittorrent.com%3A80","udp%3A%2F%2Fopen.demonii.com%3A1337","udp%3A%2F%2Ftracker.coppersurfer.tk%3A6969","udp%3A%2F%2Fexodus.desync.com%3A6969"],"infoHash":"727657b1aded9628ee9d58715ac2fdb0e7255317","infoHashBuffer":{"type":"Buffer","data":[114,118,87,177,173,237,150,40,238,157,88,113,90,194,253,176,231,37,83,23]},"announce":[],"urlList":[]}}